<svg xmlns="http://www.w3.org/2000/svg" xmlns:xlink="http://www.w3.org/1999/xlink" width="214.984" height="215.002" viewBox="0 0 214.984 215.002">
  <defs>
    <style>
      .cls-1 {
        fill: #d91b26;
      }

      .cls-2 {
        fill: #777778;
      }

      .cls-3 {
        fill: url(#linear-gradient);
      }
    </style>
    <linearGradient id="linear-gradient" y1="0.5" x2="1" y2="0.5" gradientUnits="objectBoundingBox">
      <stop offset="0" stop-color="#d91b26"/>
      <stop offset="1" stop-color="#f1a325"/>
    </linearGradient>
  </defs>
  <g id="LOGO" transform="translate(-0.04)">
    <g id="Group_578" data-name="Group 578" transform="translate(82.293 170.776)">
      <path id="Path_891" data-name="Path 891" class="cls-1" d="M416.424,857.86v.49M416.36,882.5v.49m-.44-24.916v2.705m0-2.705v2.705m0-2.705v2.705" transform="translate(-415.382 -857.858)"/>
      <path id="Path_892" data-name="Path 892" class="cls-2" d="M437.905,858.34H413.22v-.49h24.685Zm-24.54,24.15h24.408v.49H413.365ZM416.9,881.2a6,6,0,0,1-3.161-5.556,18.147,18.147,0,0,1,.749-4.35q.914-3.422,2.021-3.422.424,0,.424.6a2.086,2.086,0,0,1-.129.667,10.911,10.911,0,0,0-.569,3.536q0,3.177,3.47,4.431a22.443,22.443,0,0,0,7.284.912,27.386,27.386,0,0,0,5.867-.553q2.95-.651,2.948-1.857,0-.618-1.987-.9-1.159-.146-4.155-.537a9.661,9.661,0,0,1-3.388-.864,2.926,2.926,0,0,1-1.125-2.672,8.978,8.978,0,0,1,1.009-3.275,15.069,15.069,0,0,1,2.819-4.268,5.992,5.992,0,0,1,4.286-2.118,4.578,4.578,0,0,1,3.5,1.776,4.458,4.458,0,0,1,1.336,2.769c0,.424-.185.635-.553.635.239,0,.364-.022.374-.066q0-.131-1.6-.537a16.576,16.576,0,0,0-3.356-.587,5.844,5.844,0,0,0-4.3,1.549,2.964,2.964,0,0,0-1.091,1.971q0,.636,2.395,1.027,1.466.164,2.932.342a9.139,9.139,0,0,1,2.753.717,2.823,2.823,0,0,1,1.549,2.705,9.02,9.02,0,0,1-1.027,4.921q-1.905,2.786-6.42,3.846a28.293,28.293,0,0,1-6.289.619,15.654,15.654,0,0,1-4.611-.619A10.648,10.648,0,0,1,416.9,881.2Z" transform="translate(-413.22 -857.85)"/>
      <path id="Path_893" data-name="Path 893" class="cls-2" d="M534.572,869.354q0,2.329,1.955,2.329h.456v4.969h-1.6q-4.318,0-4.318-6.958,0-5.506-.408-11.6l3.928-.032Zm2.152-11.015H530.68v-.49h6.044ZM531,882.489h5.719v.49H531Z" transform="translate(-507.281 -857.85)"/>
      <path id="Path_894" data-name="Path 894" class="cls-2" d="M573.129,858.34H557.52v-.49h15.609v.49Zm-15.512,24.15h15.43v.49h-15.43Zm5.735.211a8.2,8.2,0,0,1-1.549-1.483,8.578,8.578,0,0,1-2-4.563h-2.052v-4.969h2.168a9.878,9.878,0,0,1,2.705-4.937,6.87,6.87,0,0,1,4.937-2.461,2.192,2.192,0,0,1,1.71.8,2.746,2.746,0,0,1,.651,1.81,5.087,5.087,0,0,1-1.27,3.048,9.759,9.759,0,0,1-1.728,1.744H570.1v4.969h-2.819q2.607,1.956,2.608,4.025a2.547,2.547,0,0,1-.766,1.81c-.076.066-.151.135-.227.211h-5.54Zm-.571-3.8a4.312,4.312,0,0,1-1.32-2.25h2.851q3.159,1.842,3.161,2.932,0,.636-1.286.635A4.707,4.707,0,0,1,562.781,878.9Zm3.39-9.629a3.035,3.035,0,0,1-1.662,2.411h-2.9q1.514-3.324,3.454-3.325Q566.171,868.361,566.172,869.275Zm3.926,2.411h3v4.969h-3Z" transform="translate(-528.794 -857.85)"/>
      <path id="Path_895" data-name="Path 895" class="cls-2" d="M624.338,862.267a.255.255,0,0,1-.016.408l-1.889,1.889a.263.263,0,0,1-.408,0l-1.841-1.841-1.826,1.841a.263.263,0,0,1-.408,0l-1.923-1.873c-.151-.141-.135-.3.048-.488l1.76-1.792a.306.306,0,0,1,.49,0l1.792,1.792,1.776-1.792a.306.306,0,0,1,.49,0Zm4.726-3.928H618.832v-.49h10.232ZM618.9,882.489h10.119v.49H618.9Zm9.99-5.835h-1.222q-2.771,0-3.8-3.145-.929,3.144-3.551,3.145h-1.4v-4.969h.9q2.607,0,3.324-3.422c.151-.727.424-1.091.814-1.091s.629.364.717,1.091q.391,3.422,3,3.422h1.222Z" transform="translate(-575.571 -857.85)"/>
      <path id="Path_896" data-name="Path 896" class="cls-2" d="M687.745,858.34H676.03v-.49h11.715Zm-11.65,24.15H687.68v.49H676.1Zm11.146-24.426v2.705l-6.486,2.25q.472.75,1.63,2.737a8.315,8.315,0,0,1,1.19,4.057,7.451,7.451,0,0,1-1.451,4.676,5.518,5.518,0,0,1-4.644,2.168h-1.368v-4.969h.521q4.545,0,4.547-.962,0-.669-4.155-6.729a.321.321,0,0,1-.032-.147,9.208,9.208,0,0,1,.53-1.987q.529-1.58.774-1.662l6.191-2.134h2.751Zm0,0v2.705l-6.486,2.25q.472.75,1.63,2.737a8.315,8.315,0,0,1,1.19,4.057,7.451,7.451,0,0,1-1.451,4.676,5.518,5.518,0,0,1-4.644,2.168h-1.368v-4.969h.521q4.545,0,4.547-.962,0-.669-4.155-6.729a.321.321,0,0,1-.032-.147,9.208,9.208,0,0,1,.53-1.987q.529-1.58.774-1.662l6.191-2.134h2.751Zm0,0v2.705l-6.486,2.25q.472.75,1.63,2.737a8.315,8.315,0,0,1,1.19,4.057,7.451,7.451,0,0,1-1.451,4.676,5.518,5.518,0,0,1-4.644,2.168h-1.368v-4.969h.521q4.545,0,4.547-.962,0-.669-4.155-6.729a.321.321,0,0,1-.032-.147,9.208,9.208,0,0,1,.53-1.987q.529-1.58.774-1.662l6.191-2.134h2.751Z" transform="translate(-623.711 -857.85)"/>
      <path id="Path_897" data-name="Path 897" class="cls-2" d="M727.19,882.684q.684-.325,1.27-.669,4.775-2.738,4.774-4.708,0-1.66-4.416-4.855l2.477-3.683c.173-.261.311-.39.408-.39s.261.129.49.39q2.493,2.918,3.8,2.917h.456v4.969h-.912a1,1,0,0,1-.733-.293,12.849,12.849,0,0,1-1.451,6.323Zm11.895-24.345h-11.4v-.49h11.4Zm-11.341,24.15h11.276v.49H727.743Zm8.409-10.8h2.9l.1.129.032,4.708-.1.131h-2.9l-.1-.131-.032-4.708Z" transform="translate(-664.687 -857.85)"/>
      <path id="Path_898" data-name="Path 898" class="cls-2" d="M797.875,870.268a8.554,8.554,0,0,1-1.043,4.286,3.6,3.6,0,0,1-3.227,2.1,2.909,2.909,0,0,1-2.835-2.021,3.225,3.225,0,0,1-1.206,1.441,3.1,3.1,0,0,1-1.776.579,3.385,3.385,0,0,1-3.064-1.889,3.058,3.058,0,0,1-1.083,1.312,2.657,2.657,0,0,1-1.573.579H780.39V871.69h1.694a1.847,1.847,0,0,0,1.728-.814,6.233,6.233,0,0,0,.456-1.5q.179-.815.669-.814.472,0,.619.814a5.641,5.641,0,0,0,.39,1.515,1.95,1.95,0,0,0,1.826.814,1.755,1.755,0,0,0,1.646-.832,6.307,6.307,0,0,0,.44-1.515q.179-.815.635-.814c.358,0,.581.273.667.814a3.24,3.24,0,0,0,.537,1.515,3.408,3.408,0,0,0,2.656.832q1.547,0,1.549-1.238a5.066,5.066,0,0,0-1.549-2.737l1.81-2.492a.48.48,0,0,1,.358-.245c.107,0,.2.092.277.277A12.326,12.326,0,0,1,797.875,870.268Zm.406-11.928H780.764v-.49h17.516Zm-17.417,24.15H798.2v.49H780.864ZM792.366,863a.255.255,0,0,1-.016.408l-1.889,1.889a.261.261,0,0,1-.408,0l-1.841-1.841L786.4,865.3a.265.265,0,0,1-.424,0l-1.923-1.873c-.153-.141-.135-.3.048-.49l1.76-1.792a.306.306,0,0,1,.49,0l1.792,1.792,1.792-1.792a.3.3,0,0,1,.472,0Zm-2.15-3.1a.249.249,0,0,1,0,.408l-1.873,1.857a.261.261,0,0,1-.408,0l-1.889-1.826c-.153-.151-.141-.315.032-.488l1.744-1.776a.3.3,0,0,1,.472,0Z" transform="translate(-707.296 -857.85)"/>
      <path id="Path_899" data-name="Path 899" class="cls-2" d="M878.552,858.34H865.68v-.49h12.872Zm-12.791,24.15h12.725v.49H865.762Zm12.253-12.922a7.422,7.422,0,0,1-1.826,5,6.054,6.054,0,0,1-4.758,2.216q-5.1,0-5.1-4.611a15.067,15.067,0,0,1,1.5-6.191q1.4-3.1,2.313-3.1,1.693,0,4.579,2.021Q878.016,867.22,878.015,869.568Zm-5.948,2.281q-3.667,0-3.667-2.542a4.489,4.489,0,0,1,.311-1.467q.358-.994.749-.993a12.046,12.046,0,0,1,3.764,1.531q3.013,1.58,3.014,2.168Q876.24,871.85,872.066,871.849Z" transform="translate(-775.607 -857.85)"/>
      <path id="Path_900" data-name="Path 900" class="cls-2" d="M913.46,882.049q1.663-.588,2.168-.832,6.761-3.324,7.756-7.005c-.782.066-1.509.1-2.184.1q-5.916,0-5.915-3.064a15.524,15.524,0,0,1,1.109-4.692q1.514-4.27,3.7-4.27,2.673,0,4.107,3.325a14.079,14.079,0,0,1,1.091,5.606,20.592,20.592,0,0,1-1.288,7.4,15.275,15.275,0,0,1-2.281,4.073l-9.141.016C912.634,882.45,912.928,882.233,913.46,882.049Zm12.5-23.71H915.09v-.49h10.867Zm-10.8,24.15h10.754v.49H915.154Zm5.964-13.1q-3.356,0-3.356-1.009,0-1.565,1.662-1.565a2.825,2.825,0,0,1,1.483.506,3.533,3.533,0,0,1,1.515,2A12.33,12.33,0,0,1,921.118,869.388Z" transform="translate(-813.17 -857.85)"/>
      <path id="Path_901" data-name="Path 901" class="cls-2" d="M971.35,882.684q.684-.325,1.27-.669,4.775-2.738,4.774-4.708,0-1.66-4.415-4.855l2.476-3.683c.173-.261.311-.39.408-.39s.261.129.49.39q2.494,2.918,3.8,2.917h.456v4.969h-.912a1,1,0,0,1-.733-.293,12.849,12.849,0,0,1-1.451,6.323Zm11.895-24.345H971.838v-.49h11.405v.49ZM971.9,882.489h11.276v.49H971.9Zm8.407-10.8h2.9l.1.129.032,4.708-.1.131h-2.9l-.1-.131-.032-4.708Z" transform="translate(-860.241 -857.85)"/>
      <path id="Path_902" data-name="Path 902" class="cls-2" d="M1037.086,858.34H1026.43v-.49h10.656Zm-10.591,24.15h10.543v.49H1026.5Zm10.3-19.374-5.54,1.386q2.688,3.129,2.69,5.638,0,6.519-6.273,6.518h-1.141v-4.969h.587q4.563,0,4.563-.864,0-.651-4.155-5.345a.431.431,0,0,1-.048-.261,9.9,9.9,0,0,1,.309-1.857c.229-.989.434-1.505.619-1.549l8.391-2.2v3.5Zm0-5.1v.326l-8.309,2.266c-.054.01-.082-.032-.082-.129a3.75,3.75,0,0,1,.245-1.011q.278-.782.472-.832l2.3-.619Zm0,0v.326l-8.309,2.266c-.054.01-.082-.032-.082-.129a3.75,3.75,0,0,1,.245-1.011q.278-.782.472-.832l2.3-.619Zm0,0v.326l-8.309,2.266c-.054.01-.082-.032-.082-.129a3.75,3.75,0,0,1,.245-1.011q.278-.782.472-.832l2.3-.619Z" transform="translate(-904.356 -857.85)"/>
    </g>
    <g id="Group_580" data-name="Group 580" transform="translate(0.625 205.668)">
      <g id="Group_579" data-name="Group 579">
        <path id="Path_903" data-name="Path 903" class="cls-2" d="M7.1,1037.92l3.273-3.2a.37.37,0,0,0-.273-.665h-1.1a.582.582,0,0,0-.434.179l-3.7,3.629-.02-3.356a.423.423,0,0,0-.452-.452H3.478a.423.423,0,0,0-.452.452l-.046,8.054a.427.427,0,0,0,.452.452H4.445a.428.428,0,0,0,.452-.454l-.022-2.479,1-.968,2.624,3.673a.547.547,0,0,0,.454.227h1.234a.406.406,0,0,0,.394-.215.378.378,0,0,0-.08-.418Z" transform="translate(-2.98 -1033.873)"/>
        <path id="Path_904" data-name="Path 904" class="cls-2" d="M47.106,1034.39a.472.472,0,0,0-.474-.33H45.525a.471.471,0,0,0-.474.33l-2.968,8.068a.42.42,0,0,0,.036.392.432.432,0,0,0,.368.169h.954a.474.474,0,0,0,.476-.333l.752-2.146h2.819l.741,2.148a.47.47,0,0,0,.474.331h.966a.432.432,0,0,0,.368-.169.418.418,0,0,0,.036-.394Zm-.2,4.465H45.264l.818-2.335Z" transform="translate(-34.273 -1033.873)"/>
        <path id="Path_905" data-name="Path 905" class="cls-2" d="M93.075,1034.06h-.908a.423.423,0,0,0-.452.45l-.022,3.006H87.881l-.022-3a.423.423,0,0,0-.452-.452H86.5a.423.423,0,0,0-.452.452L86,1042.567a.427.427,0,0,0,.452.452h1.013a.428.428,0,0,0,.452-.454L87.9,1039.2h3.782l-.022,3.364a.427.427,0,0,0,.452.452h1.013a.428.428,0,0,0,.452-.454l-.046-8.052A.423.423,0,0,0,93.075,1034.06Z" transform="translate(-69.473 -1033.873)"/>
        <path id="Path_906" data-name="Path 906" class="cls-2" d="M134.619,1037.92l3.273-3.2a.37.37,0,0,0-.273-.665h-1.1a.582.582,0,0,0-.434.179l-3.7,3.629-.02-3.356a.423.423,0,0,0-.452-.452H131a.423.423,0,0,0-.452.452l-.046,8.054a.427.427,0,0,0,.452.452h1.013a.428.428,0,0,0,.452-.454l-.022-2.479,1-.968,2.624,3.673a.547.547,0,0,0,.454.227H137.7a.406.406,0,0,0,.394-.215.378.378,0,0,0-.08-.418Z" transform="translate(-105.114 -1033.873)"/>
        <path id="Path_907" data-name="Path 907" class="cls-2" d="M178.131,1034.06h-5.214a.423.423,0,0,0-.452.452l-.046,8.055a.427.427,0,0,0,.452.452h5.262a.427.427,0,0,0,.452-.452v-.78a.423.423,0,0,0-.452-.452h-3.808l-.01-2.132h3.329a.427.427,0,0,0,.452-.452v-.78a.427.427,0,0,0-.452-.452H174.3l-.01-1.772h3.842a.427.427,0,0,0,.452-.452v-.78A.425.425,0,0,0,178.131,1034.06Z" transform="translate(-138.689 -1033.873)"/>
        <path id="Path_908" data-name="Path 908" class="cls-2" d="M211.488,1036.918l-.374-.117c-1.531-.462-1.812-.762-1.812-1.187,0-.512.484-.8,1.328-.8a1.957,1.957,0,0,1,1.768.918.512.512,0,0,0,.468.271h.862a.432.432,0,0,0,.368-.169.417.417,0,0,0,.038-.39,3.421,3.421,0,0,0-3.384-2.3,3.666,3.666,0,0,0-2.644.975,2.317,2.317,0,0,0-.661,1.722c.074,1.537,1.447,2.192,2.775,2.628l.424.153c1.62.536,1.839,1,1.839,1.386,0,.518-.5.782-1.479.782a2.074,2.074,0,0,1-2.072-1.077.5.5,0,0,0-.464-.3h-.92a.427.427,0,0,0-.35.149.432.432,0,0,0-.072.38,3.65,3.65,0,0,0,3.808,2.526c2.1,0,3.408-1.015,3.408-2.652C214.344,1038.455,213.411,1037.506,211.488,1036.918Z" transform="translate(-166.475 -1033.136)"/>
        <path id="Path_909" data-name="Path 909" class="cls-2" d="M255.563,1034.06h-.908a.423.423,0,0,0-.452.45l-.022,3.006h-3.812l-.022-3a.423.423,0,0,0-.452-.452h-.908a.423.423,0,0,0-.452.452l-.046,8.055a.427.427,0,0,0,.452.452h1.013a.428.428,0,0,0,.452-.454l-.022-3.364h3.782l-.022,3.364a.427.427,0,0,0,.452.452h1.013a.428.428,0,0,0,.452-.454l-.046-8.052A.425.425,0,0,0,255.563,1034.06Z" transform="translate(-199.615 -1033.873)"/>
        <path id="Path_910" data-name="Path 910" class="cls-2" d="M295.194,1034.39a.469.469,0,0,0-.474-.33h-1.1a.471.471,0,0,0-.474.33l-2.968,8.067a.42.42,0,0,0,.036.392.432.432,0,0,0,.368.169h.954a.474.474,0,0,0,.476-.333l.753-2.146h2.819l.743,2.148a.469.469,0,0,0,.474.331h.965a.432.432,0,0,0,.368-.169.424.424,0,0,0,.036-.394Zm-.2,4.465h-1.638l.818-2.335Z" transform="translate(-232.975 -1033.873)"/>
        <path id="Path_911" data-name="Path 911" class="cls-2" d="M341.105,1034.06h-.884a.423.423,0,0,0-.452.452l-.03,5.564-3.3-5.745a.51.51,0,0,0-.468-.269h-1.386a.423.423,0,0,0-.452.452l-.046,8.054a.427.427,0,0,0,.452.452h.977a.428.428,0,0,0,.452-.454l-.03-5.809,3.416,5.992a.512.512,0,0,0,.468.271h1.326a.428.428,0,0,0,.452-.454l-.046-8.052A.424.424,0,0,0,341.105,1034.06Z" transform="translate(-268.175 -1033.873)"/>
        <path id="Path_912" data-name="Path 912" class="cls-2" d="M396.738,1037.579h-3.143a.427.427,0,0,0-.452.452v.78a.427.427,0,0,0,.452.452h1.644a2.239,2.239,0,0,1-2.156,1.517c-1.617,0-2.62-1.182-2.62-3.086,0-1.8.932-2.911,2.435-2.911a2.567,2.567,0,0,1,2.186,1.2.513.513,0,0,0,.474.269h0l.856-.024a.419.419,0,0,0,.372-.175.4.4,0,0,0,.02-.39,4,4,0,0,0-3.8-2.54,4.374,4.374,0,0,0-4.364,4.666c0,2.747,1.742,4.666,4.234,4.666a4.251,4.251,0,0,0,4.34-4.364A.467.467,0,0,0,396.738,1037.579Z" transform="translate(-311.865 -1033.12)"/>
        <path id="Path_913" data-name="Path 913" class="cls-2" d="M441.871,1039.315a2.659,2.659,0,0,0,2.007-2.592c0-1.569-1.272-2.664-3.1-2.664h-3.364a.423.423,0,0,0-.452.452l-.046,8.054a.427.427,0,0,0,.452.452h1.013a.428.428,0,0,0,.452-.454l-.022-3.084h1.045l2.182,3.289a.537.537,0,0,0,.474.249h1.21a.409.409,0,0,0,.382-.2.405.405,0,0,0-.054-.426Zm.2-2.486c0,.249,0,1-1.445,1h-1.808l-.02-2.122h1.828C441.539,1035.71,442.066,1036.118,442.066,1036.829Z" transform="translate(-350.534 -1033.873)"/>
        <path id="Path_914" data-name="Path 914" class="cls-2" d="M480.171,1033.13a4.4,4.4,0,0,0-4.421,4.666,4.344,4.344,0,0,0,4.294,4.666,4.513,4.513,0,0,0,4.4-4.806A4.212,4.212,0,0,0,480.171,1033.13Zm-.036,7.658c-1.557,0-2.562-1.21-2.562-3.086,0-1.8.956-2.911,2.492-2.911,1.557,0,2.562,1.175,2.562,2.992S481.651,1040.788,480.136,1040.788Z" transform="translate(-381.634 -1033.128)"/>
        <path id="Path_915" data-name="Path 915" class="cls-2" d="M531.573,1034.06h-.908a.423.423,0,0,0-.452.452l-.024,4.457c-.014,2.3-1.1,2.564-1.911,2.564-1.3,0-1.947-.838-1.969-2.564l-.024-4.457a.423.423,0,0,0-.452-.452h-.908a.427.427,0,0,0-.452.452l-.024,4.611a4.181,4.181,0,0,0,1.087,3.056,4.091,4.091,0,0,0,5.427,0,4.185,4.185,0,0,0,1.085-3.054l-.024-4.609A.427.427,0,0,0,531.573,1034.06Z" transform="translate(-420.638 -1033.873)"/>
        <path id="Path_916" data-name="Path 916" class="cls-2" d="M572.952,1034.06h-3.374a.423.423,0,0,0-.452.452l-.046,8.055a.427.427,0,0,0,.452.452h1.013a.424.424,0,0,0,.452-.454l-.022-2.606h1.979a3.019,3.019,0,0,0,3.211-3.024A2.927,2.927,0,0,0,572.952,1034.06Zm1.4,3.014c0,1.021-.816,1.234-1.5,1.234h-1.877l-.02-2.6h1.9A1.346,1.346,0,0,1,574.349,1037.074Z" transform="translate(-456.384 -1033.873)"/>
        <path id="Path_917" data-name="Path 917" class="cls-2" d="M624.181,1033.13a4.4,4.4,0,0,0-4.421,4.666,4.344,4.344,0,0,0,4.294,4.666,4.514,4.514,0,0,0,4.4-4.806A4.212,4.212,0,0,0,624.181,1033.13Zm-.036,7.658c-1.557,0-2.562-1.21-2.562-3.086,0-1.8.956-2.911,2.492-2.911,1.557,0,2.562,1.175,2.562,2.992S625.661,1040.788,624.146,1040.788Z" transform="translate(-496.975 -1033.128)"/>
        <path id="Path_918" data-name="Path 918" class="cls-2" d="M674.193,1034.06h-5.226a.423.423,0,0,0-.452.452l-.046,8.055a.423.423,0,0,0,.452.452h1.013a.428.428,0,0,0,.452-.454l-.022-3.516h3.329a.423.423,0,0,0,.452-.452v-.78a.427.427,0,0,0-.452-.452h-3.343l-.01-1.62h3.852a.427.427,0,0,0,.452-.452v-.78A.427.427,0,0,0,674.193,1034.06Z" transform="translate(-535.988 -1033.873)"/>
        <path id="Path_919" data-name="Path 919" class="cls-2" d="M722.371,1039.19l-.862-.012a.5.5,0,0,0-.478.3,2.074,2.074,0,0,1-2.048,1.318c-1.617,0-2.62-1.182-2.62-3.086,0-1.8.934-2.91,2.435-2.91a2.489,2.489,0,0,1,2.2,1.3.514.514,0,0,0,.472.269l.858-.012a.432.432,0,0,0,.368-.169.417.417,0,0,0,.036-.39,3.958,3.958,0,0,0-3.85-2.66,4.376,4.376,0,0,0-4.34,4.688c0,2.733,1.776,4.642,4.316,4.642a4.019,4.019,0,0,0,3.918-2.725.4.4,0,0,0-.032-.382A.428.428,0,0,0,722.371,1039.19Z" transform="translate(-572.887 -1033.136)"/>
        <path id="Path_920" data-name="Path 920" class="cls-2" d="M764.331,1033.13a4.4,4.4,0,0,0-4.421,4.666,4.344,4.344,0,0,0,4.294,4.666,4.514,4.514,0,0,0,4.4-4.806A4.213,4.213,0,0,0,764.331,1033.13Zm-.036,7.658c-1.557,0-2.562-1.21-2.562-3.086,0-1.8.956-2.911,2.492-2.911,1.557,0,2.562,1.175,2.562,2.992S765.809,1040.788,764.3,1040.788Z" transform="translate(-609.225 -1033.128)"/>
        <path id="Path_921" data-name="Path 921" class="cls-2" d="M817.135,1034.06h-1.489a.455.455,0,0,0-.464.338l-1.887,5.837-1.9-5.827a.459.459,0,0,0-.468-.348h-1.537a.443.443,0,0,0-.464.446l-.267,8.045a.428.428,0,0,0,.105.336.439.439,0,0,0,.334.131h.944a.427.427,0,0,0,.452-.45l.084-5.479,1.776,5.564a.462.462,0,0,0,.47.364h.92a.457.457,0,0,0,.466-.339l1.734-5.4.084,5.285a.427.427,0,0,0,.452.452h.944a.438.438,0,0,0,.334-.131.423.423,0,0,0,.106-.328l-.269-8.064A.438.438,0,0,0,817.135,1034.06Z" transform="translate(-648.272 -1033.873)"/>
        <path id="Path_922" data-name="Path 922" class="cls-2" d="M865.292,1034.06h-3.374a.423.423,0,0,0-.452.452l-.046,8.055a.427.427,0,0,0,.452.452h1.013a.424.424,0,0,0,.452-.454l-.022-2.606h1.979a3.019,3.019,0,0,0,3.211-3.024A2.925,2.925,0,0,0,865.292,1034.06Zm1.4,3.014c0,1.021-.816,1.234-1.5,1.234h-1.877l-.02-2.6h1.9A1.346,1.346,0,0,1,866.689,1037.074Z" transform="translate(-690.527 -1033.873)"/>
        <path id="Path_923" data-name="Path 923" class="cls-2" d="M900.934,1034.39a.468.468,0,0,0-.474-.33h-1.1a.471.471,0,0,0-.474.33l-2.968,8.067a.42.42,0,0,0,.036.392.434.434,0,0,0,.368.169h.953a.472.472,0,0,0,.476-.333l.752-2.146h2.819l.742,2.148a.469.469,0,0,0,.474.331h.966a.432.432,0,0,0,.368-.169.424.424,0,0,0,.036-.394Zm-.2,4.465h-1.638l.818-2.335Z" transform="translate(-718.128 -1033.873)"/>
        <path id="Path_924" data-name="Path 924" class="cls-2" d="M946.835,1034.06h-.884a.423.423,0,0,0-.452.452l-.032,5.564-3.3-5.745a.512.512,0,0,0-.468-.269h-1.386a.423.423,0,0,0-.452.452l-.046,8.054a.427.427,0,0,0,.452.452h.977a.428.428,0,0,0,.452-.454l-.03-5.809,3.416,5.992a.512.512,0,0,0,.468.269h1.326a.428.428,0,0,0,.452-.454l-.046-8.052A.427.427,0,0,0,946.835,1034.06Z" transform="translate(-753.319 -1033.873)"/>
        <path id="Path_925" data-name="Path 925" class="cls-2" d="M988.976,1034.06h-.908a.423.423,0,0,0-.452.452l-.036,8.055a.427.427,0,0,0,.452.452h1a.428.428,0,0,0,.452-.454l-.058-8.052A.423.423,0,0,0,988.976,1034.06Z" transform="translate(-791.572 -1033.873)"/>
        <path id="Path_926" data-name="Path 926" class="cls-2" d="M1012.831,1034.06h-5.214a.423.423,0,0,0-.452.452l-.046,8.055a.427.427,0,0,0,.452.452h5.262a.427.427,0,0,0,.452-.452v-.78a.427.427,0,0,0-.452-.452h-3.808l-.01-2.132h3.329a.427.427,0,0,0,.452-.452v-.78a.427.427,0,0,0-.452-.452H1009l-.01-1.772h3.842a.427.427,0,0,0,.452-.452v-.78A.431.431,0,0,0,1012.831,1034.06Z" transform="translate(-807.222 -1033.873)"/>
        <path id="Path_927" data-name="Path 927" class="cls-2" d="M1046.188,1036.91l-.374-.117c-1.531-.462-1.812-.762-1.812-1.187,0-.512.484-.8,1.328-.8a1.955,1.955,0,0,1,1.768.918.513.513,0,0,0,.468.269h.862a.434.434,0,0,0,.368-.169.417.417,0,0,0,.038-.39,3.421,3.421,0,0,0-3.384-2.3,3.666,3.666,0,0,0-2.644.975,2.317,2.317,0,0,0-.661,1.722c.072,1.537,1.447,2.192,2.775,2.628l.424.153c1.622.536,1.839,1,1.839,1.385,0,.518-.5.782-1.479.782a2.074,2.074,0,0,1-2.072-1.077.5.5,0,0,0-.464-.3h-.92a.427.427,0,0,0-.35.149.431.431,0,0,0-.072.38,3.65,3.65,0,0,0,3.808,2.526c2.1,0,3.408-1.015,3.408-2.652C1049.042,1038.447,1048.109,1037.5,1046.188,1036.91Z" transform="translate(-835.008 -1033.128)"/>
      </g>
    </g>
    <path id="Path_928" data-name="Path 928" class="cls-3" d="M9.882,871.881l-2.07-2c-.163-.151-.147-.326.05-.521l1.907-1.939a.322.322,0,0,1,.506,0l2.1,2c.141.129.135.271-.016.424l-2.037,2.037A.281.281,0,0,1,9.882,871.881Zm21.166-5.93a.263.263,0,0,0,.408,0l1.826-1.841,1.841,1.841a.263.263,0,0,0,.408,0l1.889-1.889a.255.255,0,0,0,.016-.408L35.481,861.8a.306.306,0,0,0-.49,0L33.2,863.587,31.408,861.8a.288.288,0,0,0-.472,0l-1.76,1.792c-.185.185-.2.348-.05.49ZM33,862.657a.263.263,0,0,0,.408,0l1.857-1.857a.255.255,0,0,0,.016-.408l-1.923-1.826a.3.3,0,0,0-.472,0l-1.744,1.776c-.185.185-.2.348-.05.49Zm50.268,20.32H.169v-.49H6.345a9.277,9.277,0,0,1-2.7-1.027A6.074,6.074,0,0,1,.53,875.808a13.588,13.588,0,0,1,1.222-5.654q.5-1.108,1.059-1.109.538,0,.538.733a9.425,9.425,0,0,1-.311,1.979,9.444,9.444,0,0,0-.311,1.979q0,2.15,2.492,3.193a12.651,12.651,0,0,0,4.871.832,18.036,18.036,0,0,0,5.019-.75q3.583-1.042,3.585-2.851t-4.057-5.817l2.216-3.7c.163-.271.293-.408.39-.408s.239.113.456.342a9.221,9.221,0,0,1,1.826,3.13,14.194,14.194,0,0,1,.587,1.977q0-5.39-.392-11.345H.04v-.49h83.3v.49h-.506v2.429l-6.486,2.25q.472.749,1.63,2.737a8.311,8.311,0,0,1,1.188,4.057,7.462,7.462,0,0,1-1.449,4.676,5.519,5.519,0,0,1-4.644,2.168H66.845q2.607,1.956,2.608,4.025a2.547,2.547,0,0,1-.766,1.81H83.271ZM25.052,858.34H23.634l-.016,11.015q0,2.329,1.955,2.329h.342a1.388,1.388,0,0,0,1.386-.814q.066-.146.342-1.5.161-.815.685-.814c.326,0,.553.271.685.814l.358,1.515a1.185,1.185,0,0,0,1.188.814,1.712,1.712,0,0,0,1.646-.832,7.021,7.021,0,0,0,.408-1.515q.161-.815.669-.814c.336,0,.565.273.685.814a11.815,11.815,0,0,0,.39,1.515,1.49,1.49,0,0,0,1.467.832,1.337,1.337,0,0,0,1.352-.832c.044-.185.157-.689.342-1.515q.179-.815.717-.814c.3,0,.516.273.635.814a11.307,11.307,0,0,0,.408,1.515,1.451,1.451,0,0,0,1.417.814h.766q4.545,0,4.547-.962,0-.669-3.812-6.241a.621.621,0,0,1-.032-.245,13.3,13.3,0,0,1,.342-2.184q.373-1.777.619-1.857l5.67-1.857H25.052Zm37.593,24.15a9.181,9.181,0,0,1-3.279-5.833H54.951a8.882,8.882,0,0,1-4.529-.962,8.8,8.8,0,0,1-2.705-2.932,5.3,5.3,0,0,1-1.581,2.705,6.578,6.578,0,0,1-4.268,1.188h-.9v0q-1.227-.012-2.118-1.71a2.81,2.81,0,0,1-2.395,1.76,3.119,3.119,0,0,1-2.705-1.726,2.94,2.94,0,0,1-2.445,1.678,3.007,3.007,0,0,1-2.624-1.63,3.507,3.507,0,0,1-1.009.993,2.833,2.833,0,0,1-1.612.635H24.435c-2.1,0-3.432-1.242-4-3.713a10.337,10.337,0,0,1-1.867,6.466,9.294,9.294,0,0,1-5.974,3.08H62.645Zm9.936-18.641a9.2,9.2,0,0,1,.53-1.987q.529-1.58.774-1.662l5.389-1.857H53.209v2.168l-7.627,2.51q3.649,5.85,4.089,6.4a5.2,5.2,0,0,0,4.089,2.265H59.48a9.863,9.863,0,0,1,2.705-4.937,6.87,6.87,0,0,1,4.937-2.461,2.192,2.192,0,0,1,1.71.8,2.746,2.746,0,0,1,.651,1.81,5.087,5.087,0,0,1-1.27,3.048,9.759,9.759,0,0,1-1.728,1.744H72.22q4.545,0,4.547-.961,0-.669-4.155-6.729A.406.406,0,0,1,72.581,863.848Z" transform="translate(0 -687.074)"/>
    <path id="Path_929" data-name="Path 929" class="cls-3" d="M286.3,44.266c2.789-3.119,5.48-6.129,8.234-9.207a11.169,11.169,0,0,1,4.274,7.419,19.854,19.854,0,0,1,.179,2.958q.015,25.182.008,50.362c0,12.8-.016,25.593.024,38.389a4.567,4.567,0,0,1-1.262,3.3,35.127,35.127,0,0,1-8.084,6.287,90.221,90.221,0,0,1-25.245,9.876c-12.49,3.026-25.177,3.755-37.973,3.623a122.248,122.248,0,0,1-31.8-4.425,93.017,93.017,0,0,1-24.7-10.571A73.9,73.9,0,0,1,163.5,137.4a3.863,3.863,0,0,1-1.4-3.293q.066-44.822.034-89.643A11.476,11.476,0,0,1,170,33.208a11.028,11.028,0,0,1,3.281-.6c3-.08,6-.028,9.072-.028a20.968,20.968,0,0,1-.541,2.307c-.1.285-.48.512-.78.681a16.289,16.289,0,0,0-7.1,7.6,12.093,12.093,0,0,0-1.141,4.732c-.072,22.559-.046,45.118-.068,67.677a1.438,1.438,0,0,0,.9,1.477c3.416,1.537,6.782,3.215,10.278,4.547a157.8,157.8,0,0,0,26.473,7.445,114.928,114.928,0,0,0,23.967,2.256,112.4,112.4,0,0,0,31.145-5.335,121.764,121.764,0,0,0,16.676-6.356c1.571-.751,3.05-1.69,4.575-2.538a1.705,1.705,0,0,0,.886-1.708q-.042-16.029-.018-32.057,0-17.218.01-34.434A6.967,6.967,0,0,0,286.3,44.266ZM268.8,0c-5.321,33.566-20.475,30.06-44.316,44.853-14.475,8.134-26.819,30.02-10.937,42.847C206.012,41.322,284.335,65.985,268.8,0ZM208.864,52.988c1.824-2.355,4-4.439,6.078-6.7a21.87,21.87,0,0,0-9.253-7.376,9.743,9.743,0,0,0,5.053-4.591,15.285,15.285,0,0,0,1.744-6.331,25.6,25.6,0,0,0-.812-8.047c-.641.96-1.135,1.853-1.772,2.63a16.516,16.516,0,0,1-11.642,6.11,25.293,25.293,0,0,0-6.836,1.752c-3.281,1.328-4.706,4.067-4.493,7.587a1.156,1.156,0,0,1-.573.8c-1.286.729-2.658,1.316-3.9,2.106a11.727,11.727,0,0,0-4.085,5.017,15.947,15.947,0,0,1,10.774.37c5.481,2.06,9.534,5.879,12.751,10.66.784,1.167,1.463,2.4,2.094,3.446C205.584,57.956,207.047,55.335,208.864,52.988Zm33.872,4.061q5.357-1.409,10.716-2.821c6.565-1.732,13.083-3.6,19.123-6.671,7.344-3.739,13.633-8.616,18.11-15.371a44.262,44.262,0,0,0,7.137-22.665c.161-3.151.006-6.317,0-9.52a2.385,2.385,0,0,0-.372.064c-.577,1.519-1.1,3.056-1.73,4.553C291.156,15.45,284.6,24.767,273.566,30.673a1.973,1.973,0,0,0-.683.836,79.56,79.56,0,0,1-3.844,7.242c-4.115,6.135-10.029,10.435-16.7,13.838-3.123,1.593-6.386,2.94-9.585,4.4ZM284.8,109.525a1.175,1.175,0,0,0-.458-.374c-.221-.1-15.183-3.548-22.03-5.281a67.792,67.792,0,0,1-15.221-6.024c-6.008-3.2-11.3-7.288-15.181-12.97-3.1-4.543-3.993-9.41-1.547-14.566A17.654,17.654,0,0,1,232.423,67a6.7,6.7,0,0,1,4-5.53,9.519,9.519,0,0,1,1.015-.414c-1.829.516-3.665,1.011-5.447,1.656a22.331,22.331,0,0,0-9.295,6.161c-3.934,4.453-5.138,9.731-4.611,15.53a31.773,31.773,0,0,0,8.254,18.832,48.507,48.507,0,0,0,13.047,9.984c7.041,3.848,21.393,8.059,25.259,9.143a3.33,3.33,0,0,0,1.923-.034,113.267,113.267,0,0,0,14.471-5.628c.946-.452,1.879-1,2.869-1.573.054-.032.107-.062.161-.1a1.463,1.463,0,0,0,.735-1.276Q284.8,111.647,284.8,109.525Zm-46-48.859c-.452.133-.906.261-1.358.39.625-.215,1.268-.376,1.915-.53l1.636-.384,0,.01a11.03,11.03,0,0,0-2.719,1.471c-.2.145-.388.293-.581.44l-.207.157-.062.048-.012.01-.026.02,0,0h0c-.52.4-1.037.8-1.541,1.218A22.682,22.682,0,0,0,232.425,67a6.7,6.7,0,0,1,4-5.528,9.089,9.089,0,0,1,1.013-.414c.456-.127.908-.259,1.36-.39.034.07.056.111.074.145C238.857,60.777,238.835,60.736,238.8,60.666ZM191.627,93.039c-.024,7.6,4.716,13.985,12.221,16.553,6.866,2.349,14.427-.482,17.887-4.529a38.43,38.43,0,0,1-6.468-11.015,1.827,1.827,0,0,0-.912-.786A20.588,20.588,0,0,1,202.821,79.49c-.2-.756-.388-1.517-.583-2.283A17.16,17.16,0,0,0,191.627,93.039Zm118.005,63.381c1.151-12.364-.6-24.038-8.224-34.322a.548.548,0,0,0-.137.388c.016,5.731.022,11.465.07,17.2a2.577,2.577,0,0,0,.472,1.346A55.533,55.533,0,0,1,307.9,152.4c.524,1.34.985,2.7,1.477,4.055C309.461,156.446,309.546,156.432,309.632,156.421Z" transform="translate(-129.798)"/>
  </g>
</svg>
