<svg xmlns="http://www.w3.org/2000/svg" enable-background="new 0 0 64 64" viewBox="0 0 64 64" width="256" height="256"><rect width="63" height="43" x=".5" y="10.5" fill="#028738" class="color028738 svgShape"></rect><path fill="#ffffff" d="M40.26 40.51c-.13 0-.24 0-.35 0-5.83.01-11.66.02-17.48.03-.6 0-1.2-.03-1.79-.18-.52-.13-.97-.38-1.33-.77-.04-.04-.07-.08-.12-.14 7.05.16 14.06.13 21.12.19-.16-.17-.29-.34-.18-.55.08-.17.24-.23.42-.28.02.06.04.11.07.16.02.03.06.07.1.08.24.05.3.15.23.39-.02.06-.05.12-.07.19.49.02.96.02 1.43.07.51.05 1.02.02 1.53-.04.33-.04.6.1.77.39.2.33.28.69.21 1.08-.05.26-.2.44-.47.49-.06.01-.12.02-.18.04-.21.06-.38 0-.51-.16-.06-.07-.11-.09-.21-.09-.53.01-1.05.01-1.58.01-.28 0-.56-.01-.83-.01-.05 0-.1.04-.14.07-.2.19-.4.17-.54-.06C40.17 41.12 40.1 40.83 40.26 40.51zM42.16 40.63c0-.01 0-.02 0-.04-.39 0-.78 0-1.17 0-.12 0-.17.06-.17.16 0 .09.01.19.14.2.28.01.57.02.85.03.05 0 .11-.01.14-.03.27-.19.44-.19.69-.01.02.01.05.02.07.02.21.01.41.02.62.02.12 0 .14-.1.14-.2 0-.09-.04-.15-.15-.15C42.94 40.63 42.55 40.63 42.16 40.63zM29.52 29.08c.19-.45.58-.64.98-.83.43-.2.88-.33 1.36-.38.18-.02.21-.05.21-.23.01-.2 0-.39.02-.58.06-.43.44-.78.87-.84.53-.06 1.08.37 1.15.9.06.54-.16.94-.6 1.22-.38.24-.81.34-1.24.41-.12.02-.25.04-.37.07 0 .02 0 .04 0 .06.06.01.12.03.18.03.43 0 .85 0 1.28.01.54 0 1.09.01 1.63.02.09 0 .17.05.28.08-.31.31-.42.66-.5 1.04-.01.04-.07.09-.11.1-.63.13-1.25.26-1.88.37-.26.05-.52.06-.78.1-.21.03-.37.16-.48.34-.09.15-.07.29.08.39.2.13.41.26.62.34.41.16.31.47.11.69-.02.03-.08.04-.11.04-.91-.05-1.78-.25-2.5-.86-.18-.15-.32-.35-.46-.54-.09-.13-.17-.16-.29-.05-.08.07-.15.16-.22.24-.42.5-.88.95-1.47 1.26-.48.26-.97.38-1.5.18-.38-.14-.66-.37-.79-.77-.01-.03-.03-.06-.05-.09-.43.16-.84.32-1.27.46-.38.13-.77.23-1.16.35-.06.02-.12.03-.18.02-.06 0-.11-.03-.17-.05.03-.05.04-.11.08-.14.13-.12.26-.24.41-.33.51-.31 1.03-.62 1.55-.92.25-.15.51-.29.75-.44.07-.04.12-.13.15-.2.09-.22.15-.46.25-.67.07-.15.19-.27.29-.41.02.01.03.02.05.03-.02.25-.04.49-.07.77.06-.03.09-.05.12-.07.35-.28.69-.55 1.04-.83.51-.41.41-.92.06-1.32-.07-.08-.16-.15-.24-.23-.26-.24-.33-.69-.16-1 .13-.24.43-.35.66-.21.38.21.57.58.69.98.03.09-.05.09-.11.08-.09-.02-.17-.04-.3-.07.27.32.34.67.4 1.03.05.34-.02.66-.18.95-.32.62-.8 1.09-1.39 1.45-.13.08-.26.16-.39.24-.07.04-.09.09-.07.17.05.2.2.34.41.36.28.02.54-.03.78-.17.56-.34 1.03-.77 1.43-1.29.26-.34.3-.71.27-1.12-.06-.62-.3-1.19-.55-1.75-.1-.22-.22-.44-.22-.7.01-.26.15-.43.34-.56.03-.02.1-.01.13.01.1.08.2.17.26.28.42.71.67 1.49.72 2.31C29.35 28.9 29.37 29.02 29.52 29.08zM29.59 29.91c0 .02.01.06.02.1.1.49.43.8.83 1.04.09.05.2.06.3.09.02-.1.05-.21.04-.31-.03-.34.07-.52.39-.64.1-.04.21-.06.31-.11.14-.06.15-.18.02-.26-.08-.05-.19-.07-.28-.09-.42-.05-.84-.09-1.26-.14C29.77 29.58 29.59 29.71 29.59 29.91zM33.02 27.59c.08-.04.15-.05.16-.09.02-.04-.01-.13-.04-.15-.1-.07-.21-.12-.32-.16-.03-.01-.11.02-.13.06-.02.03 0 .11.03.14C32.81 27.46 32.92 27.52 33.02 27.59zM43.05 23.47c-.02-.18-.05-.36-.06-.54-.01-.23.12-.39.29-.51.11-.07.17.03.22.11.19.32.38.64.57.96.07.12.15.25.22.37.03.05.04.11.04.16 0 .14-.09.18-.21.12-.04-.02-.07-.04-.14-.08.01.12.02.21.03.31.02.21.04.43.05.64 0 .21.08.37.2.53.21.27.41.55.62.83.03.04.06.07.12.14-.09-.53-.17-1.02-.25-1.51-.11-.62-.24-1.24-.34-1.86-.06-.34.06-.5.35-.71.12-.09.21-.06.29.06.31.49.54 1.03.69 1.6.04.14-.01.23-.15.23-.15.01-.16.08-.14.2.08.41.16.82.23 1.24.11.67.21 1.34.31 2.01.01.07.04.14.08.19.32.45.64.89.98 1.33.2.26.29.55.29.86 0 .2-.01.41-.03.61-.01.06-.05.12-.08.21-.37-.58-.73-1.13-1.08-1.68-.01 0-.02.01-.04.01 0 .16-.02.32 0 .47.07.58-.25.97-.63 1.32-.03.03-.08.05-.15.1 0-.18.01-.33 0-.48-.03-.83-.08-1.66-.1-2.49-.01-.19-.08-.34-.2-.49-.19-.24-.37-.48-.55-.73 0 .29 0 .57 0 .85 0 .76.02 1.53.01 2.29 0 .36-.04.71-.28 1.02-.3.39-.85.62-1.25.46-.29-.12-.57-.29-.79-.53-.23-.26-.46-.25-.61.06-.09.18-.12.39-.18.58-.06.19-.1.39-.18.57-.21.46-.55.55-1 .33-.87-.43-1.16-1.69-.74-2.46.05-.09.11-.17.18-.26 0 .19 0 .37 0 .54.01.42.11.82.37 1.17.21.29.54.28.71-.04.17-.34.32-.7.5-1.03.13-.24.29-.47.48-.67.23-.25.5-.21.7.06.14.19.29.38.44.57.19.25.58.25.7-.13.14-.44.21-.89.17-1.35-.04-.56-.07-1.11-.11-1.67-.03-.49-.06-.98-.1-1.47-.01-.09-.05-.2-.11-.27-.42-.51-.84-1.03-1.29-1.52-.36-.38-.41-.81-.36-1.29.01-.1.01-.2.04-.3.03-.13.08-.14.19-.07.4.28.76.6 1.08.98C43.01 23.45 43.04 23.45 43.05 23.47c0 .18-.18.1-.29.19.11.13.22.25.35.4C43.09 23.83 43.07 23.65 43.05 23.47z" class="colorfff svgShape"></path><path fill="#ffffff" d="M22.78,24.34c0.14,0.94,0.27,1.86,0.4,2.78c0.1-0.03,0.18-0.07,0.27-0.09c0.18-0.05,0.28,0.02,0.32,0.2
			c0.01,0.03,0.01,0.07,0.01,0.1c-0.01,0.13,0,0.24,0.16,0.27c0.15,0.03,0.35-0.06,0.41-0.17c0.07-0.12,0.14-0.25,0.23-0.35
			c0.2-0.2,0.43-0.15,0.55,0.11c0.02,0.04,0.02,0.1,0.05,0.13c0.04,0.04,0.1,0.08,0.14,0.08c0.04,0,0.1-0.05,0.11-0.1
			c0.03-0.08,0.04-0.17,0.05-0.25c0.01-0.11,0.07-0.18,0.16-0.21c0.12-0.04,0.24-0.08,0.39-0.13c-0.01,0.18-0.02,0.33-0.03,0.48
			c-0.03,0.25-0.07,0.5-0.11,0.75c-0.03,0.17-0.14,0.29-0.3,0.36c-0.27,0.13-0.54,0.13-0.81-0.02c-0.17-0.09-0.21-0.08-0.36,0.04
			c-0.27,0.23-0.57,0.35-0.92,0.26c-0.11-0.03-0.21-0.1-0.34-0.18c0.02,0.19,0.02,0.36,0.05,0.52c0.18,1.35-0.3,2.39-1.48,3.1
			c-0.77,0.46-1.6,0.73-2.5,0.68c-0.56-0.03-1.06-0.2-1.41-0.68c-0.28-0.38-0.32-0.82-0.29-1.27c0.02-0.23,0.06-0.46,0.1-0.69
			c0.02-0.09,0.07-0.19,0.13-0.27c0.09-0.13,0.22-0.12,0.28,0.03c0.05,0.13,0.07,0.28,0.09,0.42c0.04,0.25,0.06,0.5,0.11,0.75
			c0.05,0.28,0.23,0.46,0.48,0.59c0.39,0.2,0.81,0.24,1.23,0.19c1-0.11,1.77-0.59,2.26-1.49c0.26-0.47,0.37-0.99,0.39-1.53
			c0-0.06-0.05-0.12-0.07-0.18c-0.05,0.04-0.13,0.07-0.16,0.12c-0.04,0.09-0.05,0.19-0.07,0.29c-0.18,0.85-0.57,1.57-1.34,2.03
			c-0.47,0.29-0.99,0.4-1.54,0.29c-0.78-0.15-1.27-0.8-1.23-1.61c0.02-0.35,0.1-0.69,0.24-1.01c0.02-0.05,0.1-0.12,0.15-0.12
			c0.06,0,0.14,0.07,0.16,0.12c0.05,0.15,0.07,0.32,0.09,0.48c0.02,0.16,0.02,0.31,0.04,0.47c0.05,0.5,0.39,0.79,0.92,0.72
			c0.73-0.1,1.35-0.43,1.8-1.04c0.13-0.17,0.22-0.37,0.19-0.64c-0.09,0.05-0.18,0.08-0.24,0.13c-0.23,0.16-0.48,0.24-0.75,0.21
			c-0.37-0.03-0.57-0.23-0.57-0.59c0-0.23,0.02-0.47,0.07-0.69c0.09-0.43,0.64-0.86,1.13-0.77c0.19,0.04,0.34,0.13,0.46,0.26
			c0.07,0.08,0.14,0.15,0.22,0.23c0.08,0.08,0.15,0.16,0.28,0.09c0.12-0.06,0.19-0.19,0.17-0.33c-0.05-0.33-0.11-0.66-0.17-0.99
			c-0.18-1.02-0.35-2.04-0.53-3.06c-0.06-0.34,0.21-0.65,0.56-0.61c0.09,0.01,0.21,0.11,0.26,0.2c0.15,0.27,0.27,0.55,0.39,0.83
			c0.07,0.16,0.13,0.33,0.19,0.5c0.06,0.18-0.02,0.28-0.21,0.26C22.94,24.37,22.87,24.35,22.78,24.34z M21.09,28.24
			c0.18,0,0.25-0.05,0.25-0.19c0-0.12-0.1-0.23-0.22-0.23c-0.14,0-0.3,0.14-0.31,0.27C20.81,28.19,20.9,28.23,21.09,28.24z" class="colorfff svgShape"></path><path fill="#ffffff" d="M21.63 24.2c.1.34.2.66.29.99.04.16.05.33.07.5.04.3-.08.56-.33.71-.24.14-.5.23-.76.32-.16.05-.32 0-.46-.1-.08-.06-.15-.12-.23-.17-.12-.09-.28-.16-.39-.06-.08.07-.12.24-.12.36.02.47.08.93.1 1.4.02.41 0 .82-.15 1.21-.04.11-.11.21-.18.31-.08.1-.19.15-.34.12-.02-.34-.04-.67-.06-1-.02-.45-.04-.91-.07-1.36-.01-.27-.14-.38-.41-.38-.46 0-.75-.28-.75-.75 0-.43 0-.87 0-1.3 0-.05 0-.1-.01-.14-.01-.03-.03-.08-.06-.09-.02-.01-.08.02-.09.04-.06.11-.14.21-.15.33-.04.29-.04.59-.06.88-.01.12-.03.24-.06.35-.12.42-.55.55-.89.28-.23-.18-.31-.44-.37-.71-.11-.48-.1-.98-.07-1.47.01-.11.01-.23.02-.34.01-.05.04-.09.07-.13.04.03.11.05.13.09.08.25.14.5.21.76.06.23.11.46.17.69.02.07.05.14.1.21.08.12.2.13.25 0 .06-.15.09-.31.13-.46.07-.28.12-.56.21-.83.07-.24.2-.46.39-.64.24-.22.51-.16.62.14.12.35.09.71.07 1.06-.01.12-.03.24-.05.35-.03.17.02.31.13.44.04.05.13.09.18.08.05-.01.11-.1.11-.16.02-.14.02-.28 0-.41-.09-.5-.21-.99-.28-1.49-.05-.34-.04-.69-.03-1.04.01-.18.27-.26.42-.15.16.13.24.31.27.5.06.36.09.73.14 1.09.05.35.09.7.15 1.05.01.06.04.13.09.18.04.04.13.08.18.06.08-.03.1-.12.04-.21-.16-.27-.28-.56-.33-.88-.04-.29-.06-.58.04-.86.04-.11.09-.21.21-.23.13-.02.21.06.29.15.37.46.48.98.36 1.55-.02.1 0 .17.08.24.17.13.33.26.5.38.03.02.08.05.12.05.21.04.37.03.31-.25-.05-.2-.12-.41-.22-.58-.22-.35-.42-.7-.44-1.13-.01-.2.06-.36.23-.46.17-.1.31-.04.47.05.28.16.42.42.52.71.02.05.01.13-.02.16-.04.03-.11.03-.17.03C21.69 24.25 21.67 24.22 21.63 24.2zM36.01 24.35c-.06-.03-.12-.06-.21-.11 0 .1-.01.17 0 .24.05.42.1.84.16 1.26.01.07.05.14.1.2.7.99 1.36 2 1.93 3.07.17.32.13.68.13 1.02 0 .16-.02.31-.13.45-.61-1.02-1.22-2.04-1.83-3.05-.02.01-.03.02-.05.02.02.38.04.77.05 1.15.01.71.04 1.41.01 2.12-.02.38-.24.69-.56.91-.06.04-.13.05-.18.07 0-.41 0-.81 0-1.2.02-1.48-.04-2.95-.26-4.41-.01-.05-.03-.11-.07-.15-.62-.8-1.23-1.61-1.86-2.4-.24-.3-.3-.63-.27-.99.02-.21.14-.29.34-.23.11.03.23.08.32.15.32.25.64.51.96.77 0-.07-.01-.17 0-.26.02-.2.08-.38.23-.52.06-.05.12-.08.17-.01.37.49.8.94 1 1.54.04.11.05.23.08.35C36.04 24.33 36.02 24.34 36.01 24.35zM34.67 23.72c-.1.01-.18.02-.3.04.15.18.26.32.38.46.01-.01.02-.01.03-.02C34.75 24.05 34.71 23.89 34.67 23.72z" class="colorfff svgShape"></path><path fill="#ffffff" d="M33.22 25.44c-.17-.07-.26-.06-.36.07-.08.1-.15.21-.2.33-.13.27-.36.36-.64.4-.39.05-.7-.06-.89-.44-.1-.21-.35-.23-.52-.08-.13.12-.27.25-.4.37-.29.28-.63.36-1.02.24-.4-.12-.6-.42-.66-.81-.04-.3-.04-.6-.06-.9 0-.05-.03-.09-.05-.14-.05.03-.11.04-.13.08-.04.07-.07.15-.1.24-.09.27-.17.54-.26.8-.02.06-.06.12-.09.18-.17.35-.58.34-.81.17-.15-.11-.29-.27-.38-.44-.38-.69-.44-1.41-.2-2.16.02-.05.06-.08.1-.12.04.04.11.07.12.12.07.28.13.56.19.83.04.19.07.39.12.57.04.12.1.24.17.34.09.13.2.12.28-.02.05-.09.08-.18.11-.28.13-.43.26-.86.52-1.23.12-.18.26-.34.42-.49.24-.22.56-.11.59.22.04.46.03.92.03 1.39 0 .36.26.65.63.67.15.01.28-.04.39-.14.22-.21.36-.45.35-.78-.01-.37-.03-.73-.19-1.08-.13-.28-.11-.56.06-.82.06-.09.1-.18.17-.27.12-.17.2-.15.3.02.21.35.26.74.28 1.14.02.43.07.85.12 1.28.01.12.07.25.13.36.1.19.27.26.47.21.19-.05.37-.17.36-.41 0-.3-.08-.56-.23-.82-.08-.15-.17-.29-.26-.43-.21-.32-.15-.66-.01-.97.13-.29.55-.37.77-.15.19.2.36.43.49.68.12.22 0 .36-.25.34-.15-.01-.19.02-.15.17.1.35.19.7.31 1.04.07.23.22.31.46.26.14-.03.27-.1.41-.15.04-.02.07-.05.11-.06.14-.05.22.01.22.16 0 .02 0 .05-.01.07-.11.25-.23.51-.44.69-.06.05-.13.1-.21.11-.07.01-.17 0-.2-.04-.04-.04-.03-.14-.03-.21C33.16 25.54 33.19 25.49 33.22 25.44zM47.02 22.39c.34.48.66.93.96 1.39.11.16.04.24-.15.25-.18.01-.2.02-.17.2.06.39.15.77.2 1.16.09.81.18 1.62.23 2.44.04.68.05 1.37.04 2.05-.01.46.01.92-.09 1.38-.2.87-.76 1.35-1.6 1.54-.26.06-.53.09-.79.12-.2.02-.35-.03-.38-.14-.04-.16.07-.27.19-.34.21-.13.42-.26.64-.34.53-.18.87-.57 1.16-1 .11-.16.16-.41.16-.61-.05-1.83-.25-3.65-.52-5.46-.07-.5-.15-.99-.22-1.49-.05-.36.01-.7.2-1C46.93 22.5 46.97 22.46 47.02 22.39zM38.3 30.16c-.04-.42-.08-.9-.13-1.37-.05-.59-.1-1.18-.16-1.77-.08-.81-.18-1.61-.27-2.42-.03-.27-.1-.55-.11-.82-.03-.43.08-.82.31-1.18.05-.08.11-.11.17-.01.26.41.5.84.63 1.31.07.24.03.29-.2.36-.04.01-.1.07-.1.11.02.26.05.53.1.79.16.85.29 1.71.33 2.58.03.83.04 1.67.05 2.51 0 .13-.02.26-.06.38-.27.71-.66 1.33-1.26 1.81-.31.24-.66.37-1.05.42-.25.03-.58-.15-.7-.37-.05-.09-.05-.15.07-.2.86-.33 1.56-.89 2.22-1.52C38.27 30.64 38.31 30.49 38.3 30.16zM39.39 22.42c.04.09.07.14.09.19.19.32.39.63.58.95.1.17.21.33.3.5.07.13.02.22-.13.19-.27-.05-.3.06-.26.3.15.93.31 1.86.44 2.8.1.73.17 1.47.25 2.2.06.53-.04 1.03-.33 1.48-.08.12-.16.25-.35.26 0-.3.02-.6 0-.88-.06-.78-.09-1.56-.22-2.33-.21-1.31-.49-2.61-.74-3.92-.1-.53.02-1.03.19-1.53C39.24 22.56 39.32 22.51 39.39 22.42zM26.14 23.68c-.16.16-.3.32-.46.47-.33.31-.66.62-.99.93-.12.12-.27.17-.44.16-.2-.01-.39 0-.59 0-.06 0-.12-.02-.22-.03.08-.08.13-.13.19-.18.49-.37.98-.73 1.47-1.1.09-.07.16-.15.25-.21.08-.07.08-.14.01-.21-.04-.04-.08-.08-.12-.1-.18-.09-.23-.24-.2-.42.03-.19.1-.37.31-.43.14-.04.29-.04.43-.04.23 0 .32.16.36.36.04.19-.02.34-.18.45-.11.08-.11.13 0 .21C26.01 23.59 26.07 23.63 26.14 23.68zM25.75 23.26c.01-.16-.11-.3-.22-.29-.04.01-.1.07-.11.11-.02.11.12.26.22.25C25.68 23.33 25.73 23.28 25.75 23.26zM42.68 25.87c-.07-.01-.11-.01-.16-.02-.15-.03-.22 0-.23.16-.03.26-.04.52-.06.79-.01.07-.01.15-.02.24-.1-.03-.18-.05-.25-.09-.36-.19-.67-.45-.91-.78-.07-.09-.09-.23-.09-.35.01-.21.08-.28.29-.33.16-.04.23-.01.32.13.03.05.08.11.14.13.11.04.16-.01.15-.13 0-.03-.01-.07-.02-.1-.05-.2.03-.36.21-.44.18-.08.37-.03.48.14C42.64 25.42 42.67 25.63 42.68 25.87zM16.2 29.02c.04-.1.07-.21.13-.3.45-.64 1.06-1.07 1.82-1.25.13-.03.27-.01.4 0 .24.01.29.21.36.4-.89.39-1.78.79-2.67 1.18C16.23 29.04 16.22 29.03 16.2 29.02zM16.46 30.15c-.02.17-.05.35-.06.52-.02.3-.02.6-.02.9 0 .02 0 .04.01.06.03.07.07.14.11.2.06-.05.11-.1.17-.15.06-.05.15-.14.18-.13.07.04.16.13.17.2.03.3-.05.57-.27.78-.21.21-.66.09-.78-.22-.07-.17-.1-.36-.1-.54 0-.53.13-1.04.42-1.49.04-.06.09-.11.13-.16C16.43 30.13 16.45 30.14 16.46 30.15zM43.24 27.3c.01.19-.05.34-.19.43-.49.31-.97.62-1.46.92-.18.11-.23.07-.26-.14-.02-.19.03-.34.2-.45.49-.31.96-.63 1.45-.95.19-.12.24-.1.26.12C43.24 27.26 43.24 27.29 43.24 27.3zM33.94 31.22c-.02.08-.03.13-.04.19-.01.07-.03.14-.03.21.01.16.13.23.26.14.21-.13.44-.17.68-.17.12 0 .19.06.2.18.02.12-.06.15-.16.18-.32.1-.64.21-.96.32-.1.04-.22.07-.29-.02-.05-.07-.07-.18-.06-.27.02-.2-.06-.27-.25-.23-.06.01-.15 0-.19-.04-.06-.06-.05-.15.03-.21.15-.12.29-.25.45-.35.07-.04.18-.02.27-.01C33.89 31.14 33.91 31.19 33.94 31.22z" class="colorfff svgShape"></path><path fill="#ffffff" d="M44.81 31.48c.02 0 .04 0 .06 0 .34.02.4.14.23.42-.03.04-.06.12-.04.14.03.04.1.05.15.06.05.01.11-.01.16 0 .05.01.13.03.14.07.01.05-.01.12-.03.18-.01.02-.04.05-.06.06-.27.11-.53.23-.8.34-.03.01-.08.02-.11.01-.07-.03-.17-.06-.19-.11-.02-.05.03-.15.08-.21.06-.07.16-.12.23-.19.15-.13.13-.25-.05-.34-.03-.02-.08-.03-.1-.06-.03-.06-.07-.13-.05-.19.01-.05.07-.11.12-.13C44.63 31.48 44.72 31.48 44.81 31.48 44.81 31.47 44.81 31.48 44.81 31.48zM43.35 29.21c-.06.18-.11.37-.18.55-.02.06-.07.11-.11.14-.04.03-.1.06-.14.05-.03-.01-.05-.08-.07-.13-.01-.02-.01-.04 0-.06.07-.34-.03-.65-.17-.95-.06-.13-.08-.27-.1-.41-.02-.13.05-.22.17-.27.12-.05.23-.01.3.09.17.23.21.5.25.77.01.07.01.13.01.2C43.32 29.2 43.33 29.2 43.35 29.21zM30.15 26.88c.02-.07.02-.15.05-.2.04-.05.12-.08.18-.09.03 0 .07.08.1.13.03.04.07.08.1.12.03-.04.06-.08.09-.11.04-.04.07-.08.11-.13.05.05.09.09.13.14.02.02.01.07.03.09.02.02.05.05.08.05.02 0 .04-.05.05-.07.01-.03-.01-.07 0-.08.06-.06.11-.13.18-.15.09-.02.14.06.15.15.01.09.01.17.03.25.03.15-.02.26-.14.33-.3.16-.6.17-.91.03C30.22 27.27 30.16 27.11 30.15 26.88zM37.13 25.18c0-.04 0-.08.01-.13.02-.1.08-.18.19-.17.1.01.14.08.15.18.02.24.02.48-.24.6-.29.13-.58.13-.84-.05-.16-.11-.23-.45-.13-.62.03-.05.11-.09.17-.09.04 0 .08.07.11.12.03.04.06.08.09.12.03-.04.06-.08.09-.12.04-.04.07-.08.11-.13.05.05.1.09.13.14.03.05.06.1.08.16C37.09 25.2 37.11 25.19 37.13 25.18zM20.99 22.82c.01.32-.15.5-.48.54-.1.01-.21.01-.31-.01-.36-.06-.52-.31-.45-.67.02-.1.08-.17.18-.17.1 0 .11.08.14.15.01.04.06.07.09.11.03-.03.05-.07.08-.1.04-.05.08-.1.12-.15.04.05.09.11.13.16.03.04.06.08.09.12.02-.04.04-.08.05-.12.02-.11.07-.19.19-.19.11 0 .15.09.15.19C20.99 22.74 20.99 22.78 20.99 22.82zM37.15 23.57c-.06.16-.14.4-.24.64-.02.05-.1.07-.15.1-.01-.06-.04-.12-.03-.17.09-.34-.01-.63-.25-.88-.07-.07-.13-.15-.18-.24-.06-.11-.1-.23 0-.34.09-.1.27-.13.4-.06.05.03.1.06.13.1C37.02 22.95 37.11 23.2 37.15 23.57zM46.16 24.92c.09-.28-.06-.5-.2-.72-.09-.14-.17-.3-.22-.46-.04-.12.03-.22.15-.27.12-.05.24-.04.32.07.24.32.36.68.31 1.07-.03.2-.11.4-.18.6-.02.04-.08.07-.12.1-.02-.05-.05-.1-.06-.15C46.14 25.08 46.16 25 46.16 24.92zM25.92 25.5c0 .44-.39.71-.76.6-.2-.06-.32-.26-.3-.51.02-.26.14-.46.39-.56.05-.02.13-.03.17 0 .03.02.02.11.01.17-.01.12-.05.24-.04.35.01.16.13.2.26.11C25.74 25.6 25.83 25.55 25.92 25.5zM17.14 23.51c.04-.17-.03-.32-.15-.46-.06-.07-.11-.14-.16-.22-.07-.1-.11-.22-.03-.33.06-.09.23-.11.36-.06.24.1.32.32.35.55.04.28-.04.53-.18.76-.02.04-.08.06-.12.08-.02-.04-.06-.09-.06-.13C17.13 23.65 17.14 23.58 17.14 23.51zM29.95 22.6c-.08.27-.16.55-.25.82-.02.07-.1.13-.16.17-.11.06-.24-.01-.23-.13.02-.34.03-.69.18-1.01.05-.11.13-.24.28-.2.15.05.16.2.15.34C29.92 22.59 29.93 22.59 29.95 22.6zM24.56 30.13c.01-.06.01-.1.02-.13.06-.26-.01-.48-.23-.65-.04-.03-.09-.06-.11-.11-.03-.07-.07-.16-.05-.23.01-.05.11-.1.17-.12.12-.04.22.02.31.1.3.3.34.82.09 1.17-.03.04-.1.06-.15.09C24.6 30.2 24.58 30.15 24.56 30.13zM27.76 22.97c-.01.21-.11.33-.31.4-.15.05-.28-.01-.34-.13-.05-.1-.05-.23-.04-.34.05-.31.24-.53.51-.69.04-.03.11-.01.17-.01 0 .07.02.15-.01.21-.04.08-.13.14-.19.21-.04.05-.07.11-.08.18-.02.17.03.21.2.18C27.69 22.96 27.72 22.97 27.76 22.97z" class="colorfff svgShape"></path></svg>